<svg width="75" height="30" viewBox="0 0 75 30" fill="none" xmlns="http://www.w3.org/2000/svg">
    <path d="M23.819 15.8966C23.819 15.2899 23.925 14.7745 24.1385 14.3581C24.3537 13.9417 24.627 13.6043 24.9653 13.3505C25.2984 13.0951 25.6776 12.914 26.1081 12.8196C26.5335 12.719 26.9571 12.6664 27.3842 12.6664H27.6216V11.5752H27.3842C25.459 11.5876 23.9882 12.0302 22.9683 12.9047C21.9502 13.7761 21.4395 14.9633 21.4395 16.4739V24.9217H23.819V18.6393H27.6353V17.7833H23.819V15.895V15.8966Z" fill="white"/>
    <path d="M52.7263 15.8966C52.7263 15.2899 52.8305 14.7745 53.0474 14.3581C53.261 13.9417 53.5326 13.6043 53.8725 13.3505C54.2107 13.0951 54.5917 12.914 55.017 12.8196C55.4424 12.719 55.8729 12.6664 56.2914 12.6664H56.5288V11.5752H56.2914C54.3679 11.5876 52.8988 12.0302 51.879 12.9047C50.8574 13.7761 50.3467 14.9633 50.3467 16.4739V24.9217H52.7246V18.6393H56.551V17.7833H52.7246V15.895L52.7263 15.8966Z" fill="white"/>
    <path d="M31.9074 15.4849H29.5312V24.8675H31.9074V15.4849Z" fill="white"/>
    <path d="M30.6585 10.8867C30.2332 10.8867 29.871 11.0229 29.5721 11.2984C29.2765 11.5724 29.1279 11.9036 29.1279 12.2936C29.1279 12.6837 29.2765 13.0087 29.5721 13.2827C29.871 13.5597 30.2332 13.6944 30.6585 13.6944C30.8379 13.6944 31.019 13.6588 31.2069 13.586C31.3914 13.5071 31.5605 13.405 31.7142 13.2734C31.8663 13.1418 31.9875 12.9932 32.0764 12.8245C32.1652 12.6574 32.2079 12.4763 32.2079 12.2936C32.2079 11.9021 32.0593 11.5708 31.7535 11.2984C31.4494 11.0229 31.0822 10.8867 30.6568 10.8867" fill="white"/>
    <path d="M35.4852 16.8578C34.4466 17.7338 33.9238 18.9333 33.9238 20.4548V24.8814H36.3V19.7026C36.3 19.0788 36.4042 18.5619 36.6212 18.1393C36.833 17.7245 37.1114 17.3933 37.4582 17.1395C37.7981 16.8965 38.1842 16.7154 38.6164 16.6117C39.04 16.5033 39.0657 16.4553 39.4876 16.4662L39.4688 15.5391C37.506 15.5391 36.5238 15.9771 35.4869 16.8547" fill="white"/>
    <path d="M47.3044 17.0418C46.8671 16.6224 46.3358 16.2958 45.7157 16.0528C45.099 15.8082 44.414 15.6798 43.659 15.6689C42.9432 15.6953 42.2839 15.8299 41.674 16.0791C41.0693 16.3298 40.5449 16.6626 40.0973 17.0821C39.648 17.4969 39.303 17.9829 39.0553 18.5277C38.8041 19.0772 38.6846 19.6638 38.6846 20.286C38.7119 20.9623 38.8571 21.5784 39.1287 22.1371C39.3935 22.699 39.7608 23.1819 40.21 23.5874C40.6696 23.9929 41.1991 24.3071 41.8107 24.5315C42.4205 24.7559 43.0936 24.8674 43.8247 24.8674C46.0266 24.8674 47.248 23.8134 47.8818 23.2794L47.8886 22.6231C46.4639 23.6245 45.345 23.8985 44.2757 23.8985C43.659 23.8985 43.1363 23.8025 42.7263 23.6013C42.3163 23.4001 41.9832 23.154 41.7304 22.8537C41.4741 22.5535 41.2845 22.2222 41.1667 21.8647C41.0454 21.501 40.9719 21.1527 40.9309 20.8122H48.6095C48.6095 20.7379 48.6095 20.642 48.6146 20.5259C48.6215 20.4082 48.6283 20.3138 48.6283 20.2566C48.6505 19.6452 48.5514 19.0586 48.3191 18.5045C48.0834 17.9504 47.7485 17.4628 47.3044 17.0434M40.9531 19.6669C40.9924 19.2892 41.0778 18.9255 41.2025 18.571C41.3289 18.2212 41.4929 17.9117 41.7065 17.6377C41.9234 17.3715 42.1814 17.1502 42.494 16.983C42.8015 16.8097 43.1602 16.7261 43.5736 16.7261H43.618C44.3713 16.7261 44.9914 16.9598 45.4663 17.4241C45.9566 17.8869 46.2419 18.636 46.3529 19.6669H40.9531Z" fill="white"/>
    <path d="M61.8738 23.0132C61.5629 22.7578 61.3083 22.4266 61.1136 22.0241C60.9137 21.6217 60.8147 21.1187 60.8147 20.5181V11.6045H58.4385V19.93C58.4385 21.4251 58.9287 22.6123 59.9144 23.4837C60.9018 24.3551 62.2769 24.8101 64.0552 24.8457V23.753C63.6794 23.7406 63.3019 23.6803 62.9209 23.5642C62.5314 23.4543 62.1898 23.2685 61.8738 23.0132Z" fill="white"/>
    <path d="M74.99 19.5989V15.502H72.6138V21.0275C72.6138 22.7486 71.2626 23.7826 69.8926 23.7826C69.4689 23.7949 67.1149 23.7176 67.1149 20.5523V15.5035H64.7354V19.9735C64.7354 21.2411 65.0223 22.2921 65.5929 23.1201C66.1652 23.9513 67.5437 24.9248 69.679 24.9248C71.8143 24.9248 72.6189 24.0968 72.6292 24.0937V25.6786C72.6292 26.2853 72.5198 26.8007 72.3029 27.2171C72.0911 27.6319 71.816 27.9708 71.4795 28.2216C71.1413 28.477 70.7638 28.6565 70.3316 28.7556C69.9096 28.8546 69.4826 28.9057 69.0589 28.9057H68.8249V30H69.0589C70.9773 29.9876 72.4532 29.5434 73.473 28.6751C74.4946 27.8006 75.0002 26.6134 75.0002 25.1059V19.602H74.99V19.5989Z" fill="white"/>
    <path d="M17.7171 22.6202L17.7376 22.6125C17.7376 22.6125 18.2723 -3.61927 7.65553 0.423521C7.64358 0.425069 7.63162 0.42971 7.61795 0.435901C7.606 0.438997 7.59233 0.443644 7.58208 0.449836C-3.08765 4.37655 17.7188 22.6217 17.7188 22.6217L17.7171 22.6202ZM16.4462 19.8249C16.4462 19.8249 -0.120417 4.62419 8.11676 1.59828C8.11676 1.59828 8.13214 1.59054 8.14751 1.58745C8.15264 1.5828 8.16118 1.57971 8.17313 1.57507C16.3676 -1.54216 16.4616 19.8141 16.4616 19.8141L16.4479 19.8234L16.4462 19.8249Z" fill="white"/>
    <path d="M15.0948 16.5717C15.0948 16.5717 3.05161 4.92773 8.63758 2.82121C8.64612 2.81811 8.65296 2.81657 8.65637 2.81502C8.66491 2.81038 8.67004 2.80883 8.67516 2.80573C14.2287 0.629559 15.1084 16.567 15.1084 16.567L15.0948 16.5717Z" fill="white"/>
    <path d="M8.67551 2.8072C8.67551 2.8072 8.66526 2.81184 8.65671 2.81649C8.6533 2.81649 8.64476 2.81958 8.63792 2.82268C3.05366 4.9292 15.0951 16.5731 15.0951 16.5731L15.1088 16.5685C15.1088 16.5685 14.229 0.631024 8.67551 2.8072Z" fill="white"/>
    <path d="M0.368295 18.1164C0.361462 18.1241 0.361462 18.1318 0.358046 18.1396C0.352921 18.1489 0.349504 18.1566 0.34438 18.1612V18.1643C-2.89104 24.9947 17.7361 24.8012 17.7361 24.8012L17.7412 24.7857C17.7412 24.7857 3.5166 11.252 0.368295 18.1164ZM15.5478 23.9623C15.5478 23.9623 -1.24771 23.775 1.25317 18.5064V18.5033C1.25317 18.5033 1.25829 18.494 1.26342 18.4847C1.26513 18.4801 1.26513 18.4723 1.27196 18.4677C3.69767 13.1712 15.5529 23.9484 15.5529 23.9484L15.5495 23.9608L15.5478 23.9623Z" fill="white"/>
    <path d="M13.0711 22.9176V22.9253C13.0711 22.9253 0.530862 22.4873 2.19982 18.8856C2.19982 18.881 2.19982 18.8779 2.20495 18.8732C2.20495 18.8686 2.20495 18.8655 2.20495 18.8608H2.20836C3.81924 15.2406 13.0711 22.9176 13.0711 22.9176Z" fill="white"/>
    <path d="M2.20838 18.8623H2.20497C2.20497 18.8623 2.20497 18.8716 2.20497 18.8747C2.19984 18.8793 2.19984 18.8824 2.19984 18.8871C0.530881 22.4872 13.0694 22.9268 13.0694 22.9268V22.919C13.0694 22.919 3.81926 15.2421 2.20838 18.8623Z" fill="white"/>
    </svg>
    