<svg width="10" height="15" viewBox="0 0 10 15" fill="none" xmlns="http://www.w3.org/2000/svg">
<g id="Group 514645139">
<path id="Vector" d="M4.20811 0.256058C4.20154 0.256994 4.19497 0.2598 4.18746 0.262607C4.18089 0.264478 4.17338 0.267285 4.16775 0.271027C-1.69859 2.6465 9.74118 13.6818 9.74118 13.6818L9.75245 13.6771C9.75245 13.6771 10.0463 -2.18865 4.20811 0.256058Z" fill="#F47920"/>
<path id="Vector_2" d="M4.49276 0.953269C4.48619 0.955141 4.48056 0.957012 4.47868 0.959819C4.47117 0.96169 4.46647 0.963561 4.46178 0.965432C-0.066813 2.79732 9.04295 11.9905 9.04295 11.9905L9.05046 11.9848C9.05046 11.9848 8.99882 -0.932885 4.49276 0.953269Z" fill="#F99D1C"/>
<path id="Vector_3" d="M4.76972 1.69871C4.76972 1.69871 4.76408 1.70152 4.75939 1.70433C4.75751 1.70526 4.75282 1.7062 4.74906 1.70807C1.67837 2.98141 8.3004 10.0246 8.3004 10.0246L8.30791 10.0217C8.30791 10.0217 7.82257 0.382335 4.76972 1.69871Z" fill="#FFD400"/>
<path id="Vector_4" d="M0.201548 10.9568C0.201548 10.9568 0.197793 10.9662 0.195915 10.9709C0.193099 10.9765 0.191221 10.9812 0.189344 10.984V10.9858C-1.58961 15.1165 9.75252 14.9995 9.75252 14.9995L9.75534 14.9902C9.75534 14.9902 1.93263 6.80467 0.201548 10.9568Z" fill="#F47920"/>
<path id="Vector_5" d="M0.69783 11.1686C0.69783 11.1686 0.695014 11.1771 0.693136 11.1789C0.691259 11.1836 0.688442 11.1874 0.687504 11.1902V11.192C-0.687784 14.3777 8.54777 14.4919 8.54777 14.4919L8.54965 14.4844C8.54965 14.4844 2.03087 7.96518 0.69783 11.1686Z" fill="#F99D1C"/>
<path id="Vector_6" d="M1.21274 11.4079H1.21086C1.21086 11.4079 1.21086 11.4135 1.21086 11.4163C1.20804 11.4191 1.20804 11.421 1.20804 11.4229C0.290872 13.6009 7.18515 13.8657 7.18515 13.8657V13.861C7.18515 13.861 2.09893 9.21766 1.21274 11.4079Z" fill="#FFD400"/>
</g>
</svg>
