<svg width="81" height="36" viewBox="0 0 81 36" fill="none" xmlns="http://www.w3.org/2000/svg">
<path d="M25.724 19.0781C25.724 18.3505 25.8383 17.7305 26.0688 17.233C26.3011 16.7337 26.5962 16.329 26.9631 16.0246C27.3245 15.7183 27.7339 15.5011 28.1986 15.386C28.6577 15.2653 29.115 15.2022 29.5778 15.2022H29.8341V13.8936H29.5778C27.4997 13.9084 25.9102 14.4393 24.8094 15.4881C23.7086 16.5332 23.1572 17.9588 23.1572 19.7705V29.9095H25.7258V22.3712H29.847V21.3446H25.7258V19.0781H25.724Z" fill="#F37021"/>
<path d="M56.9441 19.0781C56.9441 18.3505 57.0566 17.7305 57.2908 17.233C57.5212 16.7337 57.8144 16.329 58.1832 16.0246C58.5483 15.7183 58.9595 15.5011 59.4205 15.386C59.8796 15.2653 60.3443 15.2022 60.7979 15.2022H61.0542V13.8936H60.7979C58.7198 13.9084 57.134 14.4393 56.0313 15.4881C54.9287 16.5332 54.3755 17.9588 54.3755 19.7705V29.9095H56.9441V22.3712H61.0764V21.3446H56.9441V19.0781Z" fill="#F37021"/>
<path d="M34.459 18.5825H31.894V29.8408H34.459V18.5825Z" fill="#F37021"/>
<path d="M33.1112 13.0657C32.652 13.0657 32.2611 13.2291 31.9384 13.5595C31.6194 13.8881 31.459 14.2853 31.459 14.7549C31.459 15.2246 31.6194 15.6125 31.9384 15.9411C32.2611 16.2734 32.652 16.4349 33.1112 16.4349C33.3048 16.4349 33.5002 16.3922 33.7031 16.3049C33.904 16.2103 34.0848 16.0877 34.2507 15.93C34.4148 15.7722 34.5457 15.594 34.6416 15.3898C34.7375 15.1893 34.7854 14.9721 34.7854 14.7512C34.7854 14.2816 34.625 13.8843 34.295 13.5558C33.9649 13.2254 33.5684 13.062 33.1112 13.062" fill="#F37021"/>
<path d="M38.324 20.231C37.2029 21.2835 36.6387 22.7202 36.6387 24.5468V29.8595H39.2054V23.6446C39.2054 22.8947 39.3179 22.2747 39.5521 21.768C39.7807 21.2705 40.0813 20.8732 40.4556 20.5688C40.8226 20.2774 41.2393 20.0583 41.7058 19.9358C42.1631 19.8059 42.1908 19.7483 42.6462 19.7613L42.6259 18.6494C40.5054 18.6494 39.4451 19.1747 38.324 20.2291" fill="#F37021"/>
<path d="M51.0874 20.4519C50.6153 19.9489 50.04 19.5572 49.3707 19.2658C48.705 18.9725 47.9656 18.8184 47.1487 18.8054C46.3743 18.837 45.6625 18.9985 45.0042 19.2973C44.3515 19.598 43.7854 19.9971 43.3023 20.5002C42.8173 20.9977 42.4448 21.5806 42.1775 22.2358C41.9064 22.8948 41.7773 23.5983 41.7773 24.3445C41.8068 25.1557 41.9654 25.8964 42.2568 26.5646C42.5426 27.2385 42.939 27.8195 43.424 28.3058C43.92 28.794 44.4935 29.169 45.1536 29.4382C45.8119 29.7073 46.5384 29.8428 47.3294 29.8428C49.7081 29.8428 51.0265 28.5768 51.7125 27.9364L51.7199 27.1494C50.1802 28.3504 48.9724 28.6808 47.8181 28.6808C47.1506 28.6808 46.5882 28.5657 46.1456 28.3244C45.7031 28.0831 45.3417 27.7861 45.0688 27.4278C44.7922 27.0677 44.5875 26.6705 44.4603 26.2417C44.3294 25.8054 44.2501 25.3878 44.2058 24.9794H52.4998C52.4998 24.8903 52.4998 24.7752 52.5054 24.6341C52.5128 24.493 52.5201 24.3798 52.5201 24.3111C52.5441 23.576 52.4372 22.8725 52.1864 22.2098C51.9319 21.5453 51.5705 20.9606 51.0911 20.4556M44.2316 23.6039C44.274 23.151 44.3662 22.7147 44.5008 22.2896C44.6373 21.8701 44.8143 21.4989 45.0448 21.1703C45.279 20.851 45.5593 20.5856 45.8949 20.3851C46.2268 20.1772 46.614 20.077 47.0602 20.077H47.1082C47.9213 20.077 48.5907 20.3573 49.1052 20.9141C49.6344 21.471 49.9441 22.3676 50.0622 23.6057H44.2298L44.2316 23.6039Z" fill="#F37021"/>
<path d="M66.8257 27.6172C66.4901 27.3109 66.2154 26.9136 66.0052 26.4292C65.7894 25.9465 65.6825 25.3432 65.6825 24.623V13.9253H63.1157V23.9176C63.1157 25.7126 63.6449 27.1364 64.7089 28.1815C65.7747 29.2284 67.2609 29.7742 69.1823 29.815V28.5045C68.7766 28.4896 68.3691 28.4172 67.9579 28.278C67.5375 28.1462 67.1669 27.9235 66.8276 27.6172" fill="#F37021"/>
<path d="M80.9906 23.5203V18.603H78.4238V25.2336C78.4238 27.2978 76.9634 28.5397 75.4846 28.5397C75.0273 28.5545 72.4845 28.4617 72.4845 24.6638V18.6049H69.9141V23.9695C69.9141 25.4917 70.2238 26.7521 70.8397 27.7452C71.4574 28.7439 72.9473 29.9096 75.2523 29.9096C77.5572 29.9096 78.4275 28.9165 78.4386 28.9128V30.8155C78.4386 31.5431 78.3206 32.1613 78.0864 32.6624C77.8578 33.1599 77.5609 33.5665 77.1976 33.8672C76.8325 34.1735 76.4232 34.3888 75.9585 34.5076C75.503 34.6264 75.0421 34.6876 74.5829 34.6876H74.3303V36H74.5829C76.6537 35.9852 78.2487 35.4524 79.3495 34.4092C80.454 33.3604 80.9998 31.9348 80.9998 30.1249V23.5203H80.9888H80.9906Z" fill="#F37021"/>
<path d="M8.26604 0.508035C8.25313 0.509891 8.24022 0.51546 8.22547 0.521029C8.21256 0.524741 8.19781 0.53031 8.18675 0.537735C-3.33603 5.25082 19.1342 27.1456 19.1342 27.1456L19.1563 27.1363C19.1563 27.1363 19.7335 -4.34241 8.26604 0.508035Z" fill="#F47920"/>
<path d="M8.82449 1.8928C8.81159 1.89651 8.80052 1.90022 8.79683 1.90579C8.78208 1.9095 8.77286 1.91322 8.76364 1.91693C-0.131519 5.55152 17.7621 23.7913 17.7621 23.7913L17.7768 23.7801C17.7768 23.7801 17.6754 -1.84945 8.82449 1.8928Z" fill="#F99D1C"/>
<path d="M9.36851 3.37031C9.36851 3.37031 9.35744 3.37588 9.34822 3.38145C9.34454 3.38331 9.33532 3.38516 9.32794 3.38888C3.29642 5.91527 16.3036 19.8893 16.3036 19.8893L16.3183 19.8837C16.3183 19.8837 15.365 0.758536 9.36851 3.37031Z" fill="#FFD400"/>
<path d="M0.395885 21.7402C0.395885 21.7402 0.388509 21.7587 0.384821 21.768C0.379289 21.7791 0.375601 21.7884 0.371913 21.794V21.7977C-3.12235 29.9931 19.1561 29.7611 19.1561 29.7611L19.1617 29.7425C19.1617 29.7425 3.79611 13.502 0.395885 21.7402Z" fill="#F47920"/>
<path d="M1.37125 22.1616C1.37125 22.1616 1.36572 22.1783 1.36203 22.182C1.35834 22.1913 1.35281 22.1987 1.35097 22.2043V22.208C-1.3504 28.5286 16.7903 28.755 16.7903 28.755L16.794 28.7402C16.794 28.7402 3.98964 15.8057 1.37125 22.1616Z" fill="#F99D1C"/>
<path d="M2.38177 22.6348H2.37809C2.37809 22.6348 2.37809 22.6459 2.37809 22.6515C2.37255 22.6571 2.37255 22.6608 2.37255 22.6645C0.571025 26.9859 14.1129 27.5112 14.1129 27.5112V27.5019C14.1129 27.5019 4.12245 18.2892 2.38177 22.6348Z" fill="#FFD400"/>
</svg>
