<svg width="21" height="19" viewBox="0 0 21 19" fill="none" xmlns="http://www.w3.org/2000/svg">
<path d="M20.1328 8.05469C20.4141 8.37109 20.625 8.79297 20.625 9.25C20.625 10.1992 19.8516 10.9375 19.1484 11.3594C18.4102 11.7812 17.4609 12.0625 16.7578 12.0625H13.207L10.1836 17.4062C9.86719 17.9336 9.30469 18.25 8.70703 18.25H6.73828C5.96484 18.25 5.4375 17.5469 5.64844 16.8438L7.01953 12.0625H5.15625L3.78516 13.8906C3.57422 14.1719 3.25781 14.3125 2.90625 14.3125H1.42969C0.832031 14.3125 0.375 13.8555 0.375 13.2578C0.375 13.1875 0.375 13.082 0.410156 12.9766L1.46484 9.25L0.410156 5.55859C0.375 5.45312 0.375 5.34766 0.375 5.24219C0.375 4.67969 0.832031 4.1875 1.42969 4.1875H2.90625C3.25781 4.1875 3.57422 4.36328 3.78516 4.64453L5.15625 6.4375H7.01953L5.64844 1.69141C5.4375 0.988281 5.96484 0.25 6.73828 0.25H8.70703C9.30469 0.25 9.86719 0.601562 10.1836 1.12891L13.207 6.4375H16.7578C17.4609 6.4375 18.4102 6.75391 19.1484 7.21094C19.5 7.42188 19.8867 7.70312 20.1328 8.05469ZM18.5508 8.16016C17.9531 7.80859 17.2148 7.5625 16.7578 7.5625H12.8906C12.6797 7.5625 12.5039 7.45703 12.3984 7.28125L9.19922 1.69141C9.09375 1.51562 8.91797 1.375 8.70703 1.375H6.73828L8.28516 6.85938C8.35547 7.03516 8.32031 7.21094 8.21484 7.35156C8.10938 7.49219 7.93359 7.5625 7.75781 7.5625H4.875C4.66406 7.5625 4.52344 7.49219 4.41797 7.35156L2.90625 5.3125H1.5L2.58984 9.10938C2.625 9.21484 2.625 9.32031 2.58984 9.42578L1.5 13.1875H2.90625L4.41797 11.1836C4.52344 11.043 4.66406 10.9375 4.875 10.9375H7.75781C7.93359 10.9375 8.10938 11.043 8.21484 11.1836C8.32031 11.3242 8.35547 11.5 8.28516 11.6758L6.73828 17.125H8.70703C8.91797 17.125 9.09375 17.0195 9.19922 16.8438L12.3984 11.2539C12.5039 11.0781 12.6797 10.9375 12.8906 10.9375H16.7578C17.2148 10.9375 17.9531 10.7617 18.5508 10.375C19.1836 9.98828 19.5 9.60156 19.5 9.25C19.5 9.10938 19.4297 8.93359 19.2539 8.75781C19.1133 8.54688 18.8672 8.33594 18.5508 8.16016ZM9.69141 1.41016L9.19922 1.69141L9.69141 1.41016Z" fill="#E67F3E"/>
</svg>
